<mxfile host="Electron" agent="Mozilla/5.0 (Windows NT 10.0; Win64; x64) AppleWebKit/537.36 (KHTML, like Gecko) draw.io/24.7.5 Chrome/126.0.6478.183 Electron/31.3.0 Safari/537.36" version="24.7.5">
  <diagram name="EventProcessor" id="AIlfzTYuWK4ILGGmjbpS">
    <mxGraphModel dx="1269" dy="656" grid="0" gridSize="10" guides="1" tooltips="1" connect="1" arrows="1" fold="1" page="0" pageScale="1" pageWidth="827" pageHeight="1169" math="0" shadow="0">
      <root>
        <mxCell id="SAYehYv05xdKggnS0VHU-0" />
        <mxCell id="SAYehYv05xdKggnS0VHU-1" parent="SAYehYv05xdKggnS0VHU-0" />
        <mxCell id="SAYehYv05xdKggnS0VHU-2" value="Azure Container Instance&lt;div&gt;&lt;br&gt;&lt;/div&gt;&lt;div&gt;&lt;br&gt;&lt;/div&gt;&lt;div&gt;&lt;br&gt;&lt;/div&gt;&lt;div&gt;&lt;br&gt;&lt;/div&gt;" style="rounded=1;whiteSpace=wrap;html=1;" parent="SAYehYv05xdKggnS0VHU-1" vertex="1">
          <mxGeometry x="420" y="484" width="120" height="120" as="geometry" />
        </mxCell>
        <mxCell id="SAYehYv05xdKggnS0VHU-4" value="" style="shape=image;verticalLabelPosition=bottom;labelBackgroundColor=default;verticalAlign=top;aspect=fixed;imageAspect=0;image=data:image/png,iVBORw0KGgoAAAANSUhEUgAAAJYAAACWCAYAAAA8AXHiAAAAAXNSR0IArs4c6QAAAARnQU1BAACxjwv8YQUAAAAJcEhZcwAADsMAAA7DAcdvqGQAABZ+SURBVHhe7Z0LfBTVvcf/Z3aTTTYbHjG8AggoCCRgAMNDpIICWq4WrF5eYqVa/QgfH7dKtb2KukVCxKtyRVGDUqx6rUXb+sDaq9h6WynKyyoKKCoQIUB4hbyT3Z1z//95JJt9ZV+TnZmdL5/N//zPf+fMmbO/+Z8zu8sOA4t2LHyheipnfCKIvC8IrAfnvCdjgmwBuqMFxhhwfC4NHgdewYBVYH2FwIT9PhAPM8H2XWYLbFt3U9dTUqNpSFoLy+3mwrfnnBkDPnEaimUqimQSDklWq2pU4vBReyKKbRsX2LvM5/vLuRVnbXO7mag8w/SkpbCuW1czFATvzzDTXI9i6iVlIDUTaWSxQNnrfcbh5RdvzNso98S8pI2wblx3PLfFJswHzm5Ad4J86GqqIasSWK9FHLah5B566Ya8t6UqEyIdpZmZvYFnOupP34kv7b2YobpghsKDxpdVH/ZfwMTlLy/M+yOmNX/1GR5TC+va9afm4QGWYXGgXKNTOOzGV6J0yMHur5plHWZKYf1kXXWJj/mewbVNCS5xMBngaxdkMWNIayA9xdlWm+C7+sWF+YeVQzEseEgmgnOGWWoZvkL3STONMcFFvjj3lRvzNym+ITGNsH66/nS3Fs5fxbXL5a1rGCkjkMIM5tN6i/PS8yryHjTq1GgKYc1/4WQRE9k7+GoMUKoQOjScX1oxog//52Xeea/d0POoVGUgBMUalrnPn5wNImwXOYmKzniqlc984/sw2Sbadl37QvUF5BgJ6bQwKvPWnfgpzhvrpRNdPeHNaU8IXCh55abuB9EzBIbNWHN/c+pK7P465cyWz3R8EUzq5+NV7qb55TX55BgB7LrxmPfc8SlcEP4Xi5lyTbrAd4q5jZNem9O/UanQLYbLWHPXnS5GUb2DZ7IkqrYzPB0sG8NqnK/P3sBtUqWOMZSw5q49fh4H8QMcZGfrNKFcogdbs8bh31jNyXXKkOgWwwhripvbwcY24uCeJQ8yVkZ8EUwdXzj7uZNz8Rm6xTDC6tnv5K9EDkOoLA1uOyuZEPUmjjO+6kfllU6pQocYQljXrK8aIgLcT+WQg9zOSiYd4n2y7JnSmOgRQwiL+YSXgEOmSKMqTQtUGTBtYCDt4iIsmf181WCK6g3dC+uatcdvxoEcLyrvFtLgUkm2fn5axiHDx+FpdHUH6l+/0Jf0fNUnvsdiz3Y9lce4jTT3UYBX/enm/DcVVxfoOmN5q49fh2PYk+Mg0rRA44kGLL+9zzisnrF6nwNd3aBrYXHO7mkdTDxFZevv+w12Gsdxmjzbkd31OizqBt0K66ryY5fh2A2lwSNCW3lw2/w0jotsvlTQCboVFmfsLv+FKmH54X3O+KUznzvWSwroAJyt9cOM1Se72DLEMYIgjsNpcCVeUeMZiZ1U1hTyNyxVP9BacYGx/3jzlp6rleFMKdil1PGjtVUzGKf/8CCOwp6MxtNvkDxKyhOCUEdRcYNI+/jHby/qdaHipBTsZedyxdPV3ZnQsghPsdtwkAoomdN3vuXRojNSPjNbfSseU9zm85z95q196S2alEI96hRmrqka7LXxJbjD63EMpG8ntCKPSRuWH7/P2H3v3NJzheKlDM0X7zOePVJ4xTPH3vQKfB+6i/CEU77yIo8HWctPou/jk9GkHOySNkxZvz8ru9Hpxj0sQdcu1xqbwfk2mDncBofOiLDhc69SqzsOvLu41yClnDI0EdaMZ45eimfQC7gW6K+uCYxui/sIcO+lbW9uf3XcB2V/80BDixjV9p1pc/N72V+bw3xKV1NCUoU1Y/WRHqKNPYWtzvFvWMnWQVZF7/HRBQLcPcUBdsG/FmDfCR8s29QMTZi8Im3fUfvJjjOBF727qM9uLKaMpK2xpq+pGiXa2Zd4cHPIF7FAB0pW9QOtEeIl/WxwTwhREUNwanxgmgOycKIPt32oetVqFcccKn0hMpUkRViXP31sGmPiZszCPchHK2F0OxZFteTiTLCFEJWKv7iibVdz6+XnyaXUkbCwpq6pXCBy/hec2510XOrHDPTXyP7EAUKHolKRxDXdARm25O0/ER8XW8bOWNPWHL2PAXsZRWVTD44meVpAGtm/eJAN7vyBIypRqZynZK5MKXNFbl9rX4TUZyzsRnxMferII7jx3XRAeDGCBxfCYsxo8WmD7bB4QiaWKRo7u4/hgv6DJmj2X9D7td/R/pMX51/jSY/LE7bZBuLm924v2ItP7TSobzEz9cmjcznjryquaZg+xA63Xpj49+VIXO5NTdCS0gv+QPhpfLk3CqK4atMdfT9VKjUjZmFNebJymMDYDjwjnB29n2IkO2OoHW4Zn7wvYariavZGt//OtFj4CBdjqyaf6vOGVr+/FZOw6P+x1XlgJ/ZtaNsHn/Jf/4Zk3zjxWUUZcGNJ8r/ZS+J68P1GaMbMlUj/NIxXcMYe+fC2PmukQBLx31+HTH6y8g/Yq6tR+Kh83NgE9qpCFNVY7b4uTuJ6gMRFa64o+pMiu10U4Pq/31qwR+l2wmDT0TF5deUdaJ6QPXOwYFQGzBulnahUSFxL32sEj67WXEF4UGZlx09Vl+52F7UodXETlbCmrKnq7fN6DuIcndkqdTXBGtS/sSQTrh7Reb+C9NkRr7Tm8uCaKxn918wHvt3jFS/fclf/hO4DFNX7WF6vZynuPJMWfm3/9UheCBrRv2V854qKKO5jB/fULLC3vs+VvONJqg9QYrfZtk5cfexcpetxgc1GhrIVCot+ojCTnizpWuqMom+D+bdPdMAPh6bu99o+q/TCgx80Qkuo97n05ItwitvY5ZtvL9iOVTHTYcbyeFrcuLNM2iFdl0oW/xjRvy3FoiKKCyhzZYOdPv5B379/uvIZ5IEo/uOiVUdmYFXMkEjDMvGpygHgFQ+oWvZ7HwRdP98A8V9c7IBpg1MrKn/+hZnrgU2UuZJzfFrGGbBZm3/e9y18UtREzFjcI95Lu6WZl2zrB56KDfuBqI7iNEa/mpKlK1ERozBzLZsmZ65I/Zd86V/q4iKIL01YdSSm+xGFFRb9ziVnbB62HbBT2Q+0eoyTqJZekg1TzsnAGv1B4lo+3SlPiyH6729TG6e7pvneuKB8e9QDGVZYFYeOTOVcxAapcforp8W2ncn1eo2rorpooD5FpdIqLkFf4xcch2JbQ++o38cMKyxMf7NodpWVHGhVheszTt92+TVOM5N0LiqV0Sgu6i99TSea40tVHFk89vGD0jeEOyLCGov/WFGq2qiqXN37tHaZcLYxRKUyrn8Gikv+SdFkj0cyfTxtywvXVLmkigiEFNa4xytKsLE+1JzaKFkj+JNxPTXeYKJSGd/fDhcPkvse7fF2to/i6pbT1HK7VBkBnDSCGfNYxXI098kePYWaDLQq+ornOmxw10UO6O6MkIzD0NvFoHdu4r/Nv++EF+o9ihMDpxtEeGxzM9TR1yFaie34Oyle3ZSV1X/3rT3r0AkJPSuI0Y9WvI9mWtv7GuiRUd/XQF+qNlmcFtAbF3aB7AyqiI8Pvm2Bh/7aENf+jRRHlu5ccnapVApByNMa2xiAD7/0J9X5pcf2vlniHgwcq6NS/FRU42WP0l6y+6enOD7of7iHJVhYnD6WhEGkTLnR9LJYkv7Gi9QWPaLcn4Ft91H/deAKLIYkSFjFqw4VoDLtUTZuOpsMotmPGayPs5loQhIkLK9XHEgbBabDdPETRR30ZPVHzz6uta7EYkiChCVwPpA2JmTT+uZYmviJkuz+6NdHcRWMWFlRIjkBBAlLBNZP3Zg2lxtJH58eiSC3krz+6N4HX8isFSQsDuIZeWO1kfSziRLtfkxhGRsrOQEECcvH4ABZ+d4tfo2kiZ8oSnNJ64/efZ/I+0qFAIKEhSOznzbmAekvXfxESXT/RvMxY0UnrD6NB7/ljOHFjdyI/GDAcaWm+jTHmjWeHOLfv+HinOeH+p5WkLA+dF/ixUaOyhspDVMjytv85KvKNWM8UTpq34zxupp8vOBrT/BUiOCT90uNYbmtkfTw6ZEI1Eqk9k3pi6L0g3v+hBQWZr0D6saE2oj81883aTxROmrfbHGxxXdSKvgROmNx/k8Ul7RxO4uPkPUmiktOAlAbre0FWnyErDd4vJ/vEP2/03aEFlYG+wNtR2mOoP9vJtk08RMl2f3Rtc/5CVqXK1WthBTWgXsGHcUNPqIPg+SNlUbSwE8UbCWh/RvOBzgkHXgAIYVF4Iav08a4udRIoCXMGk+Ujto3VZzHKCzBa9uAm+NyC/9Kl5pyY6qvNm62eKJ01L7p4sBjE9YB96Cj2MgWenOMGkkXmzjR7ccsFjX2sXLg7QgrLIJz1jodklLbGjWvnyjUSjL7o3Pf15Dh/SO6QUQUluDz/J4sttHaWDr4idJR+2bxRZG/d+KXw2qlygAiCut797BK3Hil1Ai2lg5W/hs/2EzIds1oGbDXsRiSiMIiBJ6zDJV6nMrUGKEq16x+oiS7P3r0aRq0Z9j/JFWEoENhVboL6D/J/ZLeYSWocSqa1Q/Hoe+q4R8bqmH/dgZNIZO/DLUWqX2z+KiJP1f854DTUmUIolut4iq+x7JvdmBptFJBaVDegYR5/DeuyQX78Vr4/pvT+KiGw/ur4eBXbeM3dtRF0K/vQOhewKFgOOCDg8Pvlwye+LgeVm+pDdu+jPF9gQsjj7kHf6FUBBH1ZVCee98EG4MtlAbb/kessW3umXrIOVMLOTX14KquBRfazObIv0Q9dvQk6FcwQPFkuvdVRDaMw7O76mA1iiua/RvVomxePuEe8hP56EMT0/V1vnvfq5gI5yquYXA0NYOLRFRTB7nVdZKYnPWNIKj5PQZCCcufxi5eeKe+Hj4VmqAmtXfP1QYGHrDxQSeXDj2s1IQkJmF1LTvY3dbc/AkWh6B0cWvcXEeWoVBcZ1A8tW0ZiPwMT9BnpHHTkbBUqFvfCs2SwHYIjVAHdN+T6I5D1xb4Y6fcQ38hH2V46Jkx0c29ZyBwYRvOufm4E6WWkHYqFyW09bMbKAvJ4slVbHZdo/QsLYlWWP7QtwG+ZSgy1gg7UWS10n2REjv+FPk1jAn9T7mH1Mh14aFnx0xX994SJrK/49bZ0Qo9Xit4fNAFpzDKPC6ayiTbAHZfaqaZeITljyQyoCzWBDttTVDLfVGNgy6swGdVu4dF9evJuEl85Lq/vhKnnjexAYEuQOWrhjYrNx1c31E8q8kDfQ8chi44lXXBLJTV2IzP0w/jx/wACvqcrXiJQSL7BjPZdsxkNGXWgrd1HOIdP63i6P+6ZtlQNxaigraOm64P7F2My5qnlT6gsrETKO02pct+LPFz93wHg7+uoOZThsAEyMrMgobmBqWmjWQKyx+6jtiHa7Id6nQpZbLYx0+TOMBbtQ8Nm0WFaKEmEyL3gb2P4L7vVtyEKfxsHww4WKl42kID53LkgMuZA7lOF7iyXWhzIDvLCadrTsMne+itu/YkOhVGA4nsa8pkKDASWj0t/FMG311nqx8L7pLgsywCCQuLcN7/1U3AxefohVKkrig/2HYUL9JIWM6sbMjNQvGggEg8ruxcyMl2YnYKPQSnUigsf0hkX2Em28YaYCdrgnou3/gw3PhhIZnxKlH0lDSWjvxe6U7UhB7VOMi5f89IHARacw1SqoLALkfcIcVHfv5N3MKigcnBbFPXWK/UyPTO6wWjh4xUvOg4eeY0bN2bemH5QyLbi+KiNRk9GgIyWTTjG0P8S263/7DRPSTkF/k6osPPCqOl/qHhuxpbWDEX4S3qYNtnTG2WCFXvH6czpUPwKdm4BurZLR/OKRgIxYNHwKSRE+CysZfChKJxypPMB/1+fSFkwfW8O6wS+8DPxR4wiePUDbaoxzfK+MaGetfYeEVFRBJw3Dju23MXvvorsWiXawjaldx5mdA+ZaxBFUfkKgWnwwk9up0lrYPUacxuC/3rxh6vFzbt+FDxZMySsSLxJTTBFpwuN4P6Q8bRjXcbks8x6y9rWj486qu/cCQtY/nTXDr8cWDCCBT/BjoBqPuUiWQrH044PxR983tD4cCh0L9nX+jm6hZWVET4VsxNEWaym3gezOHd2o1nR+Ot+pipGnEtMTMZoiI0ERbRvHzYVy0rCueCjRVjp99ufzDhrUVi5HFbVOPsZ5vRrPEAnNu8fPhGrE4KmglLpQXXXt4VRTOB+cZiot3kP6fjdUe7OZ58KlskRqTx9fObRIAnPeAb4FlReBusKGy//kgQzYWl4ikdud1bVjidcfESPLa/Ul3bQZIn+xaJ4z+egeOLxS9RUGU+Jg70rSi6A1aMPCZHk0unCUvF+/DID31lRVN9Hq9LBHYFHu1/48F+oYqK0rNF/Kij5zeezSin93wi3CEKbKBYVjRCXFF0r1aCUul0YbXyaHE9lBX+WVw54k5eVjSSe329RBEWuBqadirPsIiDrmCrwAxVipd3i0TOpuO4nsXLRlwOK4uehNLCoB/v0IrUCSuQR4ur8OBf6XWimr7vZREnw5jjE3i4aCmUFZXDw4WbpBM4BehHWBamwhKWhSZYwrLQBEtYFppgCctCEyxhWWiCJSwLTbCEZaEJlrAsNMESloUmWMKy0ARLWBaaYAnLQhMsYVlogiUsC02whGWhCZawLDTBEpaFJljCstAES1gWmmAJy0ITLGFZaIIlLAtNsIRloQmWsCw0wRKWhSZYwrLQBEtYFppgCctCEyxhWWiCJSwLTbCEZaEJlrBMBgPWOTci6gBLWKaA13HOnuIAC+2+nAeVypRiCcvAoJC2Yob6mb3R1XNBWc7tC1a4Xpyzkp1RwinFEML6pvIAbP7iE9i1fzdUVB2C6voaEDndRjIYxsx9rnDOaznwZ0UfnI9CGj9/Rc5v5qxijUpYNxjiVeAoopr6WjhUVQlf7t8LW77YCu9t/Rt8tOsT+Py73XDw6PdQXVcNPjG02EzCdjxtbu7icPVesCJ38XUrXbuUel1Cd+bRFbPPL6c7ti5W3Jigg6F7ENY1tr9no1Fv0kTZCY/pFVFka/QupEBMNW/QT+YHioqob6iHw8ePYFY7Ax6fV6ntgBSecpzDDs7YLZSdri3LXWQ0URG6y1j/fn75o4zBEsXVhAx7BriycqTslpOd01rOdmS33nE13B1WtbonNMqpDs+M33EulC94OCd4xwZDd8K6akT5uRk2/lvs2kVKVadBd2x3ZjlRaE5gAoOjp6qUSBtJFxaHT3HP5XaH83/muJl6s0HDozthqcwYvNrhys4cIwKbwAQ+gXE2AXurRaqIiWSssXCqq2eM/04QhbXzHs7ZplSbCt0KKxSzC9f05hm2iSQyvORGobEL8ACcSrhTSEhYHD7jmJ0yHM6XzJSdQmEoYQUyGzbYfOefLhZQZDiNTeBMskOUsCbEKiy8oGjAQX6VM1w7lTq3KtWmx9DCCsXsoufzRMGL0ydOoRwuBMbH4WF2UcIJE4OwPmfA1zq9rhdnPcJqlbq0wXTCCoaza4qfKxS4iNMnio2mULoZfJxv0UcSFmUnNBsoO11X6vxYrk1P0kBYwcwcui430+EZ5zd9ktjy5WhkwgjrCy7ycpfo+m06ZqdQpKWwQoFT6GDRjlMoZTUOJLhiLNuVcCutwuJAn89tYIKwdn6p859y1ELFElYYpgxcn5WX2zzOxth4XKddKE+j0OfiCy/7Lq97/hMZmJ308k0C/QHw/3IeXD4sragIAAAAAElFTkSuQmCC;" parent="SAYehYv05xdKggnS0VHU-1" vertex="1">
          <mxGeometry x="496" y="424" width="70" height="70" as="geometry" />
        </mxCell>
        <mxCell id="jxDOiint6-TGEt9Kafe9-9" value="Storage Blob&amp;nbsp;&lt;div&gt;Data Contributor&lt;/div&gt;&lt;div&gt;Role&lt;/div&gt;" style="edgeStyle=orthogonalEdgeStyle;rounded=0;orthogonalLoop=1;jettySize=auto;html=1;entryX=1;entryY=0.5;entryDx=0;entryDy=0;" parent="SAYehYv05xdKggnS0VHU-1" source="SAYehYv05xdKggnS0VHU-7" target="jxDOiint6-TGEt9Kafe9-8" edge="1">
          <mxGeometry relative="1" as="geometry">
            <Array as="points">
              <mxPoint x="390" y="576" />
              <mxPoint x="390" y="719" />
            </Array>
          </mxGeometry>
        </mxCell>
        <mxCell id="SAYehYv05xdKggnS0VHU-7" value="Event&lt;div&gt;Processor&lt;/div&gt;&lt;div&gt;Service instance&lt;/div&gt;" style="rounded=1;whiteSpace=wrap;html=1;" parent="SAYehYv05xdKggnS0VHU-1" vertex="1">
          <mxGeometry x="440.5" y="535" width="79" height="56" as="geometry" />
        </mxCell>
        <mxCell id="jxDOiint6-TGEt9Kafe9-0" value="Azure EventHub Namespace&lt;div&gt;&lt;br&gt;&lt;/div&gt;&lt;div&gt;EventHub&lt;/div&gt;&lt;div&gt;&#39;messages&#39;&lt;/div&gt;&lt;div&gt;&lt;br&gt;&lt;/div&gt;&lt;div&gt;consumer group&lt;/div&gt;&lt;div&gt;&#39;aci&#39;&lt;/div&gt;" style="rounded=1;whiteSpace=wrap;html=1;" parent="SAYehYv05xdKggnS0VHU-1" vertex="1">
          <mxGeometry x="156" y="413" width="120" height="130" as="geometry" />
        </mxCell>
        <mxCell id="jxDOiint6-TGEt9Kafe9-2" value="" style="image;sketch=0;aspect=fixed;html=1;points=[];align=center;fontSize=12;image=img/lib/mscae/Event_Hubs.svg;" parent="SAYehYv05xdKggnS0VHU-1" vertex="1">
          <mxGeometry x="261" y="385" width="48" height="50" as="geometry" />
        </mxCell>
        <mxCell id="jxDOiint6-TGEt9Kafe9-4" value="Azure Event Hubs&amp;nbsp;&lt;div&gt;Data Contributor&lt;/div&gt;&lt;div&gt;Role&lt;/div&gt;" style="edgeStyle=orthogonalEdgeStyle;rounded=0;orthogonalLoop=1;jettySize=auto;html=1;entryX=0.992;entryY=0.592;entryDx=0;entryDy=0;entryPerimeter=0;exitX=0;exitY=0.25;exitDx=0;exitDy=0;" parent="SAYehYv05xdKggnS0VHU-1" source="SAYehYv05xdKggnS0VHU-7" target="jxDOiint6-TGEt9Kafe9-0" edge="1">
          <mxGeometry relative="1" as="geometry" />
        </mxCell>
        <mxCell id="jxDOiint6-TGEt9Kafe9-6" value="&lt;div style=&quot;text-wrap: wrap;&quot;&gt;Message&lt;/div&gt;&lt;div style=&quot;text-wrap: wrap;&quot;&gt;producer&lt;/div&gt;" style="shape=umlActor;verticalLabelPosition=bottom;verticalAlign=top;html=1;outlineConnect=0;" parent="SAYehYv05xdKggnS0VHU-1" vertex="1">
          <mxGeometry x="-18" y="440" width="30" height="60" as="geometry" />
        </mxCell>
        <mxCell id="jxDOiint6-TGEt9Kafe9-7" style="edgeStyle=orthogonalEdgeStyle;rounded=0;orthogonalLoop=1;jettySize=auto;html=1;entryX=0.025;entryY=0.438;entryDx=0;entryDy=0;entryPerimeter=0;" parent="SAYehYv05xdKggnS0VHU-1" source="jxDOiint6-TGEt9Kafe9-6" target="jxDOiint6-TGEt9Kafe9-0" edge="1">
          <mxGeometry relative="1" as="geometry" />
        </mxCell>
        <mxCell id="jxDOiint6-TGEt9Kafe9-8" value="Azure Storage&lt;div&gt;&lt;span style=&quot;background-color: initial;&quot;&gt;Blob container&lt;/span&gt;&lt;br&gt;&lt;/div&gt;&lt;div&gt;&lt;br&gt;&lt;/div&gt;&lt;div&gt;&#39;&lt;span style=&quot;background-color: initial;&quot;&gt;messagesaci&lt;/span&gt;&lt;/div&gt;&lt;div&gt;&lt;span style=&quot;background-color: initial;&quot;&gt;checkpoints&lt;/span&gt;&lt;span style=&quot;background-color: initial;&quot;&gt;&#39;&lt;/span&gt;&lt;/div&gt;" style="rounded=1;whiteSpace=wrap;html=1;" parent="SAYehYv05xdKggnS0VHU-1" vertex="1">
          <mxGeometry x="189" y="666" width="120" height="106" as="geometry" />
        </mxCell>
        <mxCell id="jxDOiint6-TGEt9Kafe9-10" value="" style="verticalLabelPosition=bottom;html=1;verticalAlign=top;align=center;strokeColor=none;fillColor=#00BEF2;shape=mxgraph.azure.storage_blob;" parent="SAYehYv05xdKggnS0VHU-1" vertex="1">
          <mxGeometry x="285" y="634" width="50" height="45" as="geometry" />
        </mxCell>
        <mxCell id="jxDOiint6-TGEt9Kafe9-15" value="Console&lt;div&gt;output&lt;br&gt;&lt;div&gt;as test&lt;/div&gt;&lt;/div&gt;" style="edgeStyle=orthogonalEdgeStyle;rounded=0;orthogonalLoop=1;jettySize=auto;html=1;entryX=1;entryY=0.5;entryDx=0;entryDy=0;" parent="SAYehYv05xdKggnS0VHU-1" source="jxDOiint6-TGEt9Kafe9-14" edge="1">
          <mxGeometry relative="1" as="geometry">
            <mxPoint x="520" y="563.5" as="targetPoint" />
          </mxGeometry>
        </mxCell>
        <mxCell id="jxDOiint6-TGEt9Kafe9-14" value="Tester" style="shape=umlActor;verticalLabelPosition=bottom;verticalAlign=top;html=1;outlineConnect=0;" parent="SAYehYv05xdKggnS0VHU-1" vertex="1">
          <mxGeometry x="651" y="533.5" width="30" height="60" as="geometry" />
        </mxCell>
      </root>
    </mxGraphModel>
  </diagram>
</mxfile>
